<?xml version="1.0" encoding="UTF-8" standalone="no"?>
<!-- Created with Inkscape (http://www.inkscape.org/) -->

<svg
   xmlns:dc="http://purl.org/dc/elements/1.1/"
   xmlns:cc="http://creativecommons.org/ns#"
   xmlns:rdf="http://www.w3.org/1999/02/22-rdf-syntax-ns#"
   xmlns:svg="http://www.w3.org/2000/svg"
   xmlns="http://www.w3.org/2000/svg"
   xmlns:sodipodi="http://sodipodi.sourceforge.net/DTD/sodipodi-0.dtd"
   xmlns:inkscape="http://www.inkscape.org/namespaces/inkscape"
   id="svg2"
   version="1.1"
   inkscape:version="0.48.4 r9939"
   width="42.519625"
   height="46.063"
   xml:space="preserve"
   sodipodi:docname="inf_logo.pdf"><metadata
     id="metadata8"><rdf:RDF><cc:Work
         rdf:about=""><dc:format>image/svg+xml</dc:format><dc:type
           rdf:resource="http://purl.org/dc/dcmitype/StillImage" /><dc:title></dc:title></cc:Work></rdf:RDF></metadata><defs
     id="defs6"><clipPath
       clipPathUnits="userSpaceOnUse"
       id="clipPath16"><path
         d="m 0,36.85 34.016,0 L 34.016,0 0,0 0,36.85 z"
         id="path18" /></clipPath></defs><sodipodi:namedview
     pagecolor="#ffffff"
     bordercolor="#666666"
     borderopacity="1"
     objecttolerance="10"
     gridtolerance="10"
     guidetolerance="10"
     inkscape:pageopacity="0"
     inkscape:pageshadow="2"
     inkscape:window-width="1600"
     inkscape:window-height="876"
     id="namedview4"
     showgrid="false"
     inkscape:zoom="5.123418"
     inkscape:cx="21.259813"
     inkscape:cy="23.0315"
     inkscape:window-x="0"
     inkscape:window-y="24"
     inkscape:window-maximized="1"
     inkscape:current-layer="g10" /><g
     id="g10"
     inkscape:groupmode="layer"
     inkscape:label="inf_logo"
     transform="matrix(1.25,0,0,-1.25,0,46.063)"><g
       id="g12"><g
         id="g14"
         clip-path="url(#clipPath16)"><path
           d="m 17.247,34.859 -0.605,0 0,-29.377 0.605,0 0,29.377 z m 0.936,-2.99 -0.05,-0.602 c 7.339,-0.605 13.088,-6.854 13.088,-14.229 0,-7.87 -6.405,-14.274 -14.277,-14.274 -7.873,0 -14.277,6.404 -14.277,14.274 0,7.376 5.75,13.625 13.089,14.229 l -0.048,0.602 C 8.056,31.241 2.063,24.726 2.063,17.038 c 0,-8.206 6.675,-14.88 14.881,-14.88 8.206,0 14.882,6.674 14.882,14.88 0,7.687 -5.993,14.202 -13.643,14.831"
           style="fill:#1478c7;fill-opacity:1;fill-rule:nonzero;stroke:none"
           id="path20" /></g></g></g></svg>