<?xml version="1.0" encoding="UTF-8" standalone="no"?>
<!-- Created with Inkscape (http://www.inkscape.org/) -->

<svg
   xmlns:dc="http://purl.org/dc/elements/1.1/"
   xmlns:cc="http://creativecommons.org/ns#"
   xmlns:rdf="http://www.w3.org/1999/02/22-rdf-syntax-ns#"
   xmlns:svg="http://www.w3.org/2000/svg"
   xmlns="http://www.w3.org/2000/svg"
   xmlns:sodipodi="http://sodipodi.sourceforge.net/DTD/sodipodi-0.dtd"
   xmlns:inkscape="http://www.inkscape.org/namespaces/inkscape"
   id="svg3004"
   version="1.1"
   inkscape:version="0.48.4 r9939"
   width="1026.3469"
   height="329.78351"
   xml:space="preserve"
   sodipodi:docname="TUMLogo.svg"><metadata
     id="metadata3010"><rdf:RDF><cc:Work
         rdf:about=""><dc:format>image/svg+xml</dc:format><dc:type
           rdf:resource="http://purl.org/dc/dcmitype/StillImage" /><dc:title></dc:title></cc:Work></rdf:RDF></metadata><defs
     id="defs3008"><clipPath
       clipPathUnits="userSpaceOnUse"
       id="clipPath3026"><path
         d="M 0,595 842,595 842,0 0,0 0,595 z"
         id="path3028"
         inkscape:connector-curvature="0" /></clipPath></defs><sodipodi:namedview
     pagecolor="#ffffff"
     bordercolor="#666666"
     borderopacity="1"
     objecttolerance="10"
     gridtolerance="10"
     guidetolerance="10"
     inkscape:pageopacity="0"
     inkscape:pageshadow="2"
     inkscape:window-width="1600"
     inkscape:window-height="876"
     id="namedview3006"
     showgrid="false"
     inkscape:snap-bbox="true"
     inkscape:zoom="0.98016807"
     inkscape:cx="505.70852"
     inkscape:cy="-36.440237"
     inkscape:window-x="0"
     inkscape:window-y="24"
     inkscape:window-maximized="1"
     inkscape:current-layer="g3012"
     borderlayer="true"
     fit-margin-top="0"
     fit-margin-left="0"
     fit-margin-right="0"
     fit-margin-bottom="0" /><g
     id="g3012"
     inkscape:groupmode="layer"
     inkscape:label="TUMLogo"
     transform="matrix(1.25,0,0,-1.25,-20.541482,738.09875)"><g
       id="g3014"
       transform="matrix(5.748776,0,0,5.748776,556.45077,561.43618)"><path
         d="m 0,0 0,-23.294 5.052,0 0,23.259 5.61,0 0,-23.259 16.069,0 0,23.014 5.717,0 0,-23.009 5.298,0 0,23.009 5.789,0 0,-23.009 5.298,0 0,28.341 -27.188,0 0,-23.188 -5.825,0 0,23.153 -20.628,0 L -4.808,0 0,0 z"
         style="fill:#1478c7;fill-opacity:1;fill-rule:nonzero;stroke:none"
         id="path3016"
         inkscape:connector-curvature="0" /></g><g
       id="g3018"
       transform="matrix(5.748776,0,0,5.748776,29.994548,363.74325)"><path
         d="m 0,0 -2.359,0 0,0.793 5.66,0 0,-0.793 -2.361,0 0,-6.284 -0.94,0 L 0,0 z"
         style="fill:#1478c7;fill-opacity:1;fill-rule:nonzero;stroke:none"
         id="path3020"
         inkscape:connector-curvature="0" /></g><g
       id="g3022"
       transform="matrix(5.748776,0,0,5.748776,-2062.7847,-1443.3511)"><g
         id="g3024"
         clip-path="url(#clipPath3026)"><g
           id="g3030"
           transform="translate(370.6543,311.1123)"><path
             d="M 0,0 C -0.04,0.804 -0.645,1.447 -1.478,1.447 -2.358,1.447 -2.885,0.784 -2.943,0 L 0,0 z m 0.813,-1.427 c -0.229,-1.13 -1.041,-1.743 -2.191,-1.743 -1.635,0 -2.407,1.129 -2.458,2.695 0,1.537 1.012,2.666 2.408,2.666 1.815,0 2.369,-1.694 2.321,-2.933 l -3.836,0 c -0.031,-0.892 0.475,-1.685 1.595,-1.685 0.693,0 1.179,0.337 1.328,1 l 0.833,0 z"
             style="fill:#1478c7;fill-opacity:1;fill-rule:nonzero;stroke:none"
             id="path3032"
             inkscape:connector-curvature="0" /></g><g
           id="g3034"
           transform="translate(375.8555,311.5396)"><path
             d="m 0,0 c -0.129,0.644 -0.575,1.02 -1.269,1.02 -1.219,0 -1.595,-0.961 -1.595,-2.001 0,-0.943 0.426,-1.873 1.496,-1.873 0.813,0 1.299,0.475 1.407,1.248 l 0.862,0 c -0.188,-1.248 -0.97,-1.992 -2.259,-1.992 -1.567,0 -2.398,1.09 -2.398,2.617 0,1.535 0.793,2.745 2.417,2.745 1.16,0 2.092,-0.545 2.211,-1.764 L 0,0 z"
             style="fill:#1478c7;fill-opacity:1;fill-rule:nonzero;stroke:none"
             id="path3036"
             inkscape:connector-curvature="0" /></g><g
           id="g3038"
           transform="translate(377.5498,315.1372)"><path
             d="m 0,0 0.843,0 0,-2.706 0.019,0 c 0.278,0.614 1.001,0.872 1.616,0.872 1.347,0 1.763,-0.773 1.763,-1.873 l 0,-3.37 -0.842,0 0,3.469 c 0,0.625 -0.396,1.03 -1.041,1.03 -1.02,0 -1.515,-0.683 -1.515,-1.605 l 0,-2.894 L 0,-7.077 0,0 z"
             style="fill:#1478c7;fill-opacity:1;fill-rule:nonzero;stroke:none"
             id="path3040"
             inkscape:connector-curvature="0" /></g><g
           id="g3042"
           transform="translate(383,313.1841)"><path
             d="m 0,0 0.792,0 0,-0.813 0.021,0 c 0.356,0.636 0.931,0.932 1.665,0.932 1.347,0 1.763,-0.773 1.763,-1.873 l 0,-3.37 -0.842,0 0,3.469 c 0,0.625 -0.396,1.03 -1.041,1.03 -1.02,0 -1.515,-0.683 -1.515,-1.604 l 0,-2.895 L 0,-5.124 0,0 z"
             style="fill:#1478c7;fill-opacity:1;fill-rule:nonzero;stroke:none"
             id="path3044"
             inkscape:connector-curvature="0" /></g><path
           d="m 388.523,313.184 0.843,0 0,-5.124 -0.843,0 0,5.124 z m 0.843,0.921 -0.843,0 0,1.032 0.843,0 0,-1.032 z"
           style="fill:#1478c7;fill-opacity:1;fill-rule:nonzero;stroke:none"
           id="path3046"
           inkscape:connector-curvature="0" /><g
           id="g3048"
           transform="translate(391.2822,309.6758)"><path
             d="m 0,0 c 0.031,-0.753 0.685,-0.99 1.378,-0.99 0.525,0 1.239,0.118 1.239,0.762 0,0.654 -0.832,0.764 -1.675,0.952 -0.833,0.188 -1.674,0.465 -1.674,1.447 0,1.03 1.02,1.456 1.912,1.456 1.13,0 2.032,-0.356 2.101,-1.606 l -0.843,0 C 2.379,2.675 1.805,2.884 1.25,2.884 0.744,2.884 0.159,2.745 0.159,2.229 0.159,1.626 1.051,1.526 1.834,1.338 2.677,1.149 3.509,0.872 3.509,-0.119 c 0,-1.218 -1.139,-1.615 -2.181,-1.615 -1.149,0 -2.12,0.466 -2.17,1.734 L 0,0 z"
             style="fill:#1478c7;fill-opacity:1;fill-rule:nonzero;stroke:none"
             id="path3050"
             inkscape:connector-curvature="0" /></g><g
           id="g3052"
           transform="translate(398.9961,311.5396)"><path
             d="m 0,0 c -0.128,0.644 -0.574,1.02 -1.269,1.02 -1.218,0 -1.594,-0.961 -1.594,-2.001 0,-0.943 0.425,-1.873 1.496,-1.873 0.812,0 1.298,0.475 1.407,1.248 l 0.862,0 c -0.188,-1.248 -0.971,-1.992 -2.259,-1.992 -1.567,0 -2.399,1.09 -2.399,2.617 0,1.535 0.793,2.745 2.418,2.745 1.159,0 2.091,-0.545 2.211,-1.764 L 0,0 z"
             style="fill:#1478c7;fill-opacity:1;fill-rule:nonzero;stroke:none"
             id="path3054"
             inkscape:connector-curvature="0" /></g><g
           id="g3056"
           transform="translate(400.8398,315.1372)"><path
             d="m 0,0 0.842,0 0,-2.706 0.02,0 c 0.278,0.614 1,0.872 1.616,0.872 1.347,0 1.763,-0.773 1.763,-1.873 l 0,-3.37 -0.843,0 0,3.469 c 0,0.625 -0.396,1.03 -1.04,1.03 -1.021,0 -1.516,-0.683 -1.516,-1.605 l 0,-2.894 L 0,-7.077 0,0 z"
             style="fill:#1478c7;fill-opacity:1;fill-rule:nonzero;stroke:none"
             id="path3058"
             inkscape:connector-curvature="0" /></g><g
           id="g3060"
           transform="translate(409.7832,311.1123)"><path
             d="M 0,0 C -0.038,0.804 -0.644,1.447 -1.476,1.447 -2.358,1.447 -2.883,0.784 -2.943,0 L 0,0 z m 0.813,-1.427 c -0.228,-1.13 -1.041,-1.743 -2.19,-1.743 -1.635,0 -2.408,1.129 -2.458,2.695 0,1.537 1.012,2.666 2.408,2.666 1.814,0 2.368,-1.694 2.32,-2.933 l -3.836,0 c -0.03,-0.892 0.476,-1.685 1.595,-1.685 0.695,0 1.18,0.337 1.329,1 l 0.832,0 z"
             style="fill:#1478c7;fill-opacity:1;fill-rule:nonzero;stroke:none"
             id="path3062"
             inkscape:connector-curvature="0" /></g><g
           id="g3064"
           transform="translate(420.1309,310.6172)"><path
             d="m 0,0 c 0,-1.784 -1.021,-2.725 -2.785,-2.725 -1.824,0 -2.904,0.843 -2.904,2.725 l 0,4.52 0.942,0 0,-4.52 c 0,-1.249 0.713,-1.932 1.962,-1.932 1.189,0 1.844,0.683 1.844,1.932 l 0,4.52 L 0,4.52 0,0 z"
             style="fill:#1478c7;fill-opacity:1;fill-rule:nonzero;stroke:none"
             id="path3066"
             inkscape:connector-curvature="0" /></g><g
           id="g3068"
           transform="translate(421.3105,313.1841)"><path
             d="m 0,0 0.793,0 0,-0.813 0.02,0 c 0.357,0.636 0.932,0.932 1.666,0.932 1.347,0 1.763,-0.773 1.763,-1.873 l 0,-3.37 -0.842,0 0,3.469 c 0,0.625 -0.396,1.03 -1.041,1.03 -1.021,0 -1.516,-0.683 -1.516,-1.604 l 0,-2.895 L 0,-5.124 0,0 z"
             style="fill:#1478c7;fill-opacity:1;fill-rule:nonzero;stroke:none"
             id="path3070"
             inkscape:connector-curvature="0" /></g><path
           d="m 426.835,313.184 0.843,0 0,-5.124 -0.843,0 0,5.124 z m 0.843,0.921 -0.843,0 0,1.032 0.843,0 0,-1.032 z"
           style="fill:#1478c7;fill-opacity:1;fill-rule:nonzero;stroke:none"
           id="path3072"
           inkscape:connector-curvature="0" /><g
           id="g3074"
           transform="translate(431.2588,308.0605)"><path
             d="m 0,0 -0.901,0 -1.904,5.124 0.942,0 1.437,-4.272 0.021,0 1.396,4.272 0.882,0 L 0,0 z"
             style="fill:#1478c7;fill-opacity:1;fill-rule:nonzero;stroke:none"
             id="path3076"
             inkscape:connector-curvature="0" /></g><g
           id="g3078"
           transform="translate(437.2861,311.1123)"><path
             d="M 0,0 C -0.038,0.804 -0.644,1.447 -1.477,1.447 -2.358,1.447 -2.883,0.784 -2.943,0 L 0,0 z m 0.813,-1.427 c -0.228,-1.13 -1.041,-1.743 -2.19,-1.743 -1.635,0 -2.409,1.129 -2.458,2.695 0,1.537 1.011,2.666 2.408,2.666 1.814,0 2.368,-1.694 2.319,-2.933 l -3.835,0 c -0.03,-0.892 0.475,-1.685 1.596,-1.685 0.694,0 1.179,0.337 1.328,1 l 0.832,0 z"
             style="fill:#1478c7;fill-opacity:1;fill-rule:nonzero;stroke:none"
             id="path3080"
             inkscape:connector-curvature="0" /></g><g
           id="g3082"
           transform="translate(439.1553,313.1841)"><path
             d="m 0,0 0.792,0 0,-1.08 0.02,0 c 0.407,0.823 0.971,1.228 1.883,1.199 l 0,-0.892 c -1.357,0 -1.852,-0.773 -1.852,-2.072 l 0,-2.279 L 0,-5.124 0,0 z"
             style="fill:#1478c7;fill-opacity:1;fill-rule:nonzero;stroke:none"
             id="path3084"
             inkscape:connector-curvature="0" /></g><g
           id="g3086"
           transform="translate(443.2607,309.6758)"><path
             d="m 0,0 c 0.03,-0.753 0.685,-0.99 1.377,-0.99 0.526,0 1.239,0.118 1.239,0.762 0,0.654 -0.832,0.764 -1.675,0.952 -0.832,0.188 -1.674,0.465 -1.674,1.447 0,1.03 1.02,1.456 1.913,1.456 1.13,0 2.031,-0.356 2.1,-1.606 l -0.842,0 C 2.379,2.675 1.804,2.884 1.249,2.884 0.743,2.884 0.158,2.745 0.158,2.229 0.158,1.626 1.05,1.526 1.833,1.338 2.676,1.149 3.508,0.872 3.508,-0.119 c 0,-1.218 -1.14,-1.615 -2.18,-1.615 -1.149,0 -2.121,0.466 -2.17,1.734 L 0,0 z"
             style="fill:#1478c7;fill-opacity:1;fill-rule:nonzero;stroke:none"
             id="path3088"
             inkscape:connector-curvature="0" /></g><path
           d="m 447.824,313.184 0.842,0 0,-5.124 -0.842,0 0,5.124 z m 0.842,0.921 -0.842,0 0,1.032 0.842,0 0,-1.032 z"
           style="fill:#1478c7;fill-opacity:1;fill-rule:nonzero;stroke:none"
           id="path3090"
           inkscape:connector-curvature="0" /><g
           id="g3092"
           transform="translate(451.2598,313.1841)"><path
             d="m 0,0 1.02,0 0,-0.744 -1.02,0 0,-3.181 C 0,-4.311 0.108,-4.38 0.634,-4.38 l 0.386,0 0,-0.744 -0.644,0 c -0.872,0 -1.219,0.179 -1.219,1.121 l 0,3.259 -0.872,0 0,0.744 0.872,0 0,1.537 L 0,1.537 0,0 z"
             style="fill:#1478c7;fill-opacity:1;fill-rule:nonzero;stroke:none"
             id="path3094"
             inkscape:connector-curvature="0" /></g><path
           d="m 455.87,314.958 0.893,0 0,-1.031 -0.893,0 0,1.031 z m -1.862,0 0.892,0 0,-1.031 -0.892,0 0,1.031 z m 2.516,-4.251 c -0.327,-0.238 -0.961,-0.249 -1.525,-0.348 -0.556,-0.098 -1.031,-0.296 -1.031,-0.921 0,-0.555 0.475,-0.752 0.991,-0.752 1.11,0 1.565,0.692 1.565,1.158 l 0,0.863 z m 1.369,-2.626 c -0.15,-0.09 -0.337,-0.139 -0.605,-0.139 -0.435,0 -0.714,0.238 -0.714,0.793 -0.466,-0.545 -1.09,-0.793 -1.803,-0.793 -0.932,0 -1.696,0.416 -1.696,1.436 0,1.16 0.863,1.407 1.736,1.577 0.93,0.177 1.724,0.119 1.724,0.753 0,0.732 -0.605,0.852 -1.139,0.852 -0.714,0 -1.24,-0.218 -1.28,-0.971 l -0.842,0 c 0.05,1.268 1.031,1.714 2.171,1.714 0.92,0 1.922,-0.208 1.922,-1.407 l 0,-2.637 c 0,-0.396 0,-0.573 0.268,-0.573 0.069,0 0.148,0.009 0.258,0.049 l 0,-0.654 z"
           style="fill:#1478c7;fill-opacity:1;fill-rule:nonzero;stroke:none"
           id="path3096"
           inkscape:connector-curvature="0" /><g
           id="g3098"
           transform="translate(459.9365,313.1841)"><path
             d="m 0,0 1.021,0 0,-0.744 -1.021,0 0,-3.181 C 0,-4.311 0.108,-4.38 0.635,-4.38 l 0.386,0 0,-0.744 -0.644,0 c -0.872,0 -1.219,0.179 -1.219,1.121 l 0,3.259 -0.873,0 0,0.744 0.873,0 0,1.537 L 0,1.537 0,0 z"
             style="fill:#1478c7;fill-opacity:1;fill-rule:nonzero;stroke:none"
             id="path3100"
             inkscape:connector-curvature="0" /></g><g
           id="g3102"
           transform="translate(464.9717,315.1372)"><path
             d="m 0,0 1.288,0 2.23,-5.947 2.24,5.947 1.288,0 0,-7.077 -0.892,0 0,5.888 -0.019,0 -2.21,-5.888 -0.804,0 -2.21,5.888 -0.019,0 0,-5.888 L 0,-7.077 0,0 z"
             style="fill:#1478c7;fill-opacity:1;fill-rule:nonzero;stroke:none"
             id="path3104"
             inkscape:connector-curvature="0" /></g><path
           d="m 475.752,314.958 0.893,0 0,-1.031 -0.893,0 0,1.031 z m -1.863,0 0.892,0 0,-1.031 -0.892,0 0,1.031 z m 3.499,-6.897 -0.794,0 0,0.813 -0.02,0 c -0.356,-0.635 -0.931,-0.932 -1.664,-0.932 -1.348,0 -1.764,0.773 -1.764,1.873 l 0,3.369 0.842,0 0,-3.468 c 0,-0.625 0.397,-1.03 1.04,-1.03 1.022,0 1.518,0.683 1.518,1.604 l 0,2.894 0.842,0 0,-5.123 z"
           style="fill:#1478c7;fill-opacity:1;fill-rule:nonzero;stroke:none"
           id="path3106"
           inkscape:connector-curvature="0" /><g
           id="g3108"
           transform="translate(478.6338,313.1841)"><path
             d="m 0,0 0.792,0 0,-0.813 0.02,0 c 0.358,0.636 0.932,0.932 1.665,0.932 1.348,0 1.765,-0.773 1.765,-1.873 l 0,-3.37 -0.843,0 0,3.469 c 0,0.625 -0.396,1.03 -1.042,1.03 -1.019,0 -1.515,-0.683 -1.515,-1.604 l 0,-2.895 L 0,-5.124 0,0 z"
             style="fill:#1478c7;fill-opacity:1;fill-rule:nonzero;stroke:none"
             id="path3110"
             inkscape:connector-curvature="0" /></g><g
           id="g3112"
           transform="translate(487.5957,311.5396)"><path
             d="m 0,0 c -0.129,0.644 -0.575,1.02 -1.269,1.02 -1.219,0 -1.596,-0.961 -1.596,-2.001 0,-0.943 0.427,-1.873 1.497,-1.873 0.812,0 1.3,0.475 1.407,1.248 l 0.862,0 c -0.188,-1.248 -0.969,-1.992 -2.259,-1.992 -1.566,0 -2.399,1.09 -2.399,2.617 0,1.535 0.794,2.745 2.419,2.745 1.159,0 2.092,-0.545 2.21,-1.764 L 0,0 z"
             style="fill:#1478c7;fill-opacity:1;fill-rule:nonzero;stroke:none"
             id="path3114"
             inkscape:connector-curvature="0" /></g><g
           id="g3116"
           transform="translate(489.4395,315.1372)"><path
             d="m 0,0 0.843,0 0,-2.706 0.018,0 c 0.279,0.614 1.001,0.872 1.616,0.872 1.347,0 1.764,-0.773 1.764,-1.873 l 0,-3.37 -0.842,0 0,3.469 c 0,0.625 -0.396,1.03 -1.041,1.03 -1.021,0 -1.515,-0.683 -1.515,-1.605 l 0,-2.894 L 0,-7.077 0,0 z"
             style="fill:#1478c7;fill-opacity:1;fill-rule:nonzero;stroke:none"
             id="path3118"
             inkscape:connector-curvature="0" /></g><g
           id="g3120"
           transform="translate(498.4629,311.1123)"><path
             d="M 0,0 C -0.04,0.804 -0.644,1.447 -1.478,1.447 -2.359,1.447 -2.884,0.784 -2.944,0 L 0,0 z m 0.813,-1.427 c -0.229,-1.13 -1.042,-1.743 -2.192,-1.743 -1.634,0 -2.408,1.129 -2.457,2.695 0,1.537 1.011,2.666 2.409,2.666 1.814,0 2.367,-1.694 2.319,-2.933 l -3.836,0 c -0.029,-0.892 0.475,-1.685 1.595,-1.685 0.694,0 1.181,0.337 1.328,1 l 0.834,0 z"
             style="fill:#1478c7;fill-opacity:1;fill-rule:nonzero;stroke:none"
             id="path3122"
             inkscape:connector-curvature="0" /></g><g
           id="g3124"
           transform="translate(500.2656,313.1841)"><path
             d="m 0,0 0.793,0 0,-0.813 0.02,0 c 0.357,0.636 0.93,0.932 1.665,0.932 1.348,0 1.763,-0.773 1.763,-1.873 l 0,-3.37 -0.843,0 0,3.469 c 0,0.625 -0.395,1.03 -1.039,1.03 -1.021,0 -1.516,-0.683 -1.516,-1.604 l 0,-2.895 L 0,-5.124 0,0 z"
             style="fill:#1478c7;fill-opacity:1;fill-rule:nonzero;stroke:none"
             id="path3126"
             inkscape:connector-curvature="0" /></g></g></g></g></svg>